<svg xmlns="http://www.w3.org/2000/svg">
  <symbol id="threedots" viewBox="0 0 24 24">
    <g>
      <path d="M4.125 11.9766C4.125 12.1489 4.15895 12.3196 4.22491 12.4788C4.29087 12.6381 4.38755 12.7828 4.50942 12.9046C4.6313 13.0265 4.77599 13.1232 4.93523 13.1892C5.09447 13.2551 5.26514 13.2891 5.4375 13.2891C5.60986 13.2891 5.78053 13.2551 5.93977 13.1892C6.09901 13.1232 6.2437 13.0265 6.36558 12.9046C6.48745 12.7828 6.58413 12.6381 6.65009 12.4788C6.71605 12.3196 6.75 12.1489 6.75 11.9766C6.75 11.8042 6.71605 11.6335 6.65009 11.4743C6.58413 11.3151 6.48745 11.1704 6.36558 11.0485C6.2437 10.9266 6.09901 10.8299 5.93977 10.764C5.78053 10.698 5.60986 10.6641 5.4375 10.6641C5.26514 10.6641 5.09447 10.698 4.93523 10.764C4.77599 10.8299 4.6313 10.9266 4.50942 11.0485C4.38755 11.1704 4.29087 11.3151 4.22491 11.4743C4.15895 11.6335 4.125 11.8042 4.125 11.9766ZM10.6875 11.9766C10.6875 12.3247 10.8258 12.6585 11.0719 12.9046C11.3181 13.1508 11.6519 13.2891 12 13.2891C12.3481 13.2891 12.6819 13.1508 12.9281 12.9046C13.1742 12.6585 13.3125 12.3247 13.3125 11.9766C13.3125 11.6285 13.1742 11.2946 12.9281 11.0485C12.6819 10.8023 12.3481 10.6641 12 10.6641C11.6519 10.6641 11.3181 10.8023 11.0719 11.0485C10.8258 11.2946 10.6875 11.6285 10.6875 11.9766ZM17.25 11.9766C17.25 12.3247 17.3883 12.6585 17.6344 12.9046C17.8806 13.1508 18.2144 13.2891 18.5625 13.2891C18.9106 13.2891 19.2444 13.1508 19.4906 12.9046C19.7367 12.6585 19.875 12.3247 19.875 11.9766C19.875 11.6285 19.7367 11.2946 19.4906 11.0485C19.2444 10.8023 18.9106 10.6641 18.5625 10.6641C18.2144 10.6641 17.8806 10.8023 17.6344 11.0485C17.3883 11.2946 17.25 11.6285 17.25 11.9766Z" fill="#595959"/>
    </g>
  </symbol>
  <symbol id="bell" viewBox="0 0 16 16">
    <g>
      <path d="M12.75 12H12.375V6.6875C12.375 4.48281 10.7453 2.66094 8.625 2.35781V1.75C8.625 1.40469 8.34531 1.125 8 1.125C7.65469 1.125 7.375 1.40469 7.375 1.75V2.35781C5.25469 2.66094 3.625 4.48281 3.625 6.6875V12H3.25C2.97344 12 2.75 12.2234 2.75 12.5V13C2.75 13.0688 2.80625 13.125 2.875 13.125H6.25C6.25 14.0906 7.03438 14.875 8 14.875C8.96562 14.875 9.75 14.0906 9.75 13.125H13.125C13.1938 13.125 13.25 13.0688 13.25 13V12.5C13.25 12.2234 13.0266 12 12.75 12ZM8 13.875C7.58594 13.875 7.25 13.5391 7.25 13.125H8.75C8.75 13.5391 8.41406 13.875 8 13.875ZM4.75 12V6.6875C4.75 5.81875 5.0875 5.00312 5.70156 4.38906C6.31562 3.775 7.13125 3.4375 8 3.4375C8.86875 3.4375 9.68437 3.775 10.2984 4.38906C10.9125 5.00312 11.25 5.81875 11.25 6.6875V12H4.75Z" fill="#262626"/>
    </g>
  </symbol>
  <symbol id="message" viewBox="0 0 16 16">
    <g>
      <path d="M7.25015 8C7.25015 8.19891 7.32917 8.38968 7.46982 8.53033C7.61047 8.67098 7.80124 8.75 8.00015 8.75C8.19906 8.75 8.38983 8.67098 8.53048 8.53033C8.67113 8.38968 8.75015 8.19891 8.75015 8C8.75015 7.80109 8.67113 7.61032 8.53048 7.46967C8.38983 7.32902 8.19906 7.25 8.00015 7.25C7.80124 7.25 7.61047 7.32902 7.46982 7.46967C7.32917 7.61032 7.25015 7.80109 7.25015 8ZM10.3751 8C10.3751 8.19891 10.4542 8.38968 10.5948 8.53033C10.7355 8.67098 10.9262 8.75 11.1251 8.75C11.3241 8.75 11.5148 8.67098 11.6555 8.53033C11.7961 8.38968 11.8751 8.19891 11.8751 8C11.8751 7.80109 11.7961 7.61032 11.6555 7.46967C11.5148 7.32902 11.3241 7.25 11.1251 7.25C10.9262 7.25 10.7355 7.32902 10.5948 7.46967C10.4542 7.61032 10.3751 7.80109 10.3751 8ZM4.12515 8C4.12515 8.19891 4.20417 8.38968 4.34482 8.53033C4.48547 8.67098 4.67624 8.75 4.87515 8.75C5.07406 8.75 5.26483 8.67098 5.40548 8.53033C5.54613 8.38968 5.62515 8.19891 5.62515 8C5.62515 7.80109 5.54613 7.61032 5.40548 7.46967C5.26483 7.32902 5.07406 7.25 4.87515 7.25C4.67624 7.25 4.48547 7.32902 4.34482 7.46967C4.20417 7.61032 4.12515 7.80109 4.12515 8ZM14.4564 5.2875C14.1033 4.44844 13.597 3.69531 12.9517 3.04844C12.3109 2.40531 11.5502 1.8941 10.7126 1.54375C9.85327 1.18281 8.94077 1 8.00015 1H7.9689C7.02202 1.00469 6.10484 1.19219 5.24234 1.56094C4.41196 1.91488 3.65837 2.427 3.02359 3.06875C2.38452 3.71406 1.88296 4.46406 1.53609 5.3C1.17671 6.16563 0.995462 7.08594 1.00015 8.03281C1.00545 9.11792 1.26217 10.187 1.75015 11.1562V13.5312C1.75015 13.7219 1.82587 13.9047 1.96067 14.0395C2.09546 14.1743 2.27828 14.25 2.4689 14.25H4.84546C5.81467 14.738 6.88379 14.9947 7.9689 15H8.00171C8.93765 15 9.84546 14.8188 10.7001 14.4641C11.5335 14.1179 12.2913 13.6126 12.9314 12.9766C13.5767 12.3375 14.0845 11.5906 14.4392 10.7578C14.808 9.89531 14.9955 8.97813 15.0001 8.03125C15.0048 7.07969 14.8205 6.15625 14.4564 5.2875ZM12.0955 12.1313C11.0001 13.2156 9.54702 13.8125 8.00015 13.8125H7.97359C7.0314 13.8078 6.09546 13.5734 5.2689 13.1328L5.13765 13.0625H2.93765V10.8625L2.86734 10.7312C2.42671 9.90469 2.19234 8.96875 2.18765 8.02656C2.1814 6.46875 2.77671 5.00625 3.8689 3.90469C4.95952 2.80312 6.41734 2.19375 7.97515 2.1875H8.00171C8.78296 2.1875 9.54077 2.33906 10.2548 2.63906C10.9517 2.93125 11.5767 3.35156 12.1142 3.88906C12.6501 4.425 13.072 5.05156 13.3642 5.74844C13.6673 6.47031 13.8189 7.23594 13.8158 8.02656C13.8064 9.58281 13.1955 11.0406 12.0955 12.1313Z" fill="#262626"/>
    </g>
  </symbol>
</svg>