<svg xmlns="http://www.w3.org/2000/svg">
  <symbol id="picture" viewBox="0 0 24 24">
    <g>
      <path d="M21.75 3.75H2.25C1.83516 3.75 1.5 4.08516 1.5 4.5V19.5C1.5 19.9148 1.83516 20.25 2.25 20.25H21.75C22.1648 20.25 22.5 19.9148 22.5 19.5V4.5C22.5 4.08516 22.1648 3.75 21.75 3.75ZM20.8125 18.5625H3.1875V17.6273L6.43359 13.7766L9.95156 17.9484L15.4242 11.4609L20.8125 17.85V18.5625ZM20.8125 15.5203L15.5672 9.3C15.4922 9.21094 15.3562 9.21094 15.2812 9.3L9.95156 15.6188L6.57656 11.618C6.50156 11.5289 6.36562 11.5289 6.29062 11.618L3.1875 15.2977V5.4375H20.8125V15.5203Z" fill="#1890FF"/>
      <path d="M9.95156 17.9484L6.43359 13.7766L3.1875 17.6273V18.5625H20.8125V17.85L15.4242 11.4609L9.95156 17.9484Z" fill="#E6F7FF"/>
      <path d="M3.1875 15.2977L6.29062 11.618C6.36562 11.5289 6.50156 11.5289 6.57656 11.618L9.95156 15.6188L15.2812 9.3C15.3562 9.21094 15.4922 9.21094 15.5672 9.3L20.8125 15.5203V5.4375H3.1875V15.2977ZM7.125 6.5625C7.39585 6.5625 7.66405 6.61585 7.91428 6.7195C8.16452 6.82315 8.39189 6.97507 8.58341 7.16659C8.77493 7.35811 8.92685 7.58548 9.0305 7.83572C9.13415 8.08595 9.1875 8.35415 9.1875 8.625C9.1875 8.89585 9.13415 9.16405 9.0305 9.41428C8.92685 9.66452 8.77493 9.89189 8.58341 10.0834C8.39189 10.2749 8.16452 10.4269 7.91428 10.5305C7.66405 10.6342 7.39585 10.6875 7.125 10.6875C6.57799 10.6875 6.05339 10.4702 5.66659 10.0834C5.2798 9.69661 5.0625 9.17201 5.0625 8.625C5.0625 8.07799 5.2798 7.55339 5.66659 7.16659C6.05339 6.7798 6.57799 6.5625 7.125 6.5625Z" fill="#E6F7FF"/>
      <path d="M6.46875 8.625C6.46875 8.79905 6.53789 8.96597 6.66096 9.08904C6.78403 9.21211 6.95095 9.28125 7.125 9.28125C7.29905 9.28125 7.46597 9.21211 7.58904 9.08904C7.71211 8.96597 7.78125 8.79905 7.78125 8.625C7.78125 8.45095 7.71211 8.28403 7.58904 8.16096C7.46597 8.03789 7.29905 7.96875 7.125 7.96875C6.95095 7.96875 6.78403 8.03789 6.66096 8.16096C6.53789 8.28403 6.46875 8.45095 6.46875 8.625Z" fill="#E6F7FF"/>
      <path d="M7.125 10.6875C7.39585 10.6875 7.66405 10.6342 7.91428 10.5305C8.16452 10.4269 8.39189 10.2749 8.58341 10.0834C8.77493 9.89189 8.92685 9.66452 9.0305 9.41428C9.13415 9.16405 9.1875 8.89585 9.1875 8.625C9.1875 8.35415 9.13415 8.08595 9.0305 7.83572C8.92685 7.58548 8.77493 7.35811 8.58341 7.16659C8.39189 6.97507 8.16452 6.82315 7.91428 6.7195C7.66405 6.61585 7.39585 6.5625 7.125 6.5625C6.57799 6.5625 6.05339 6.7798 5.66659 7.16659C5.2798 7.55339 5.0625 8.07799 5.0625 8.625C5.0625 9.17201 5.2798 9.69661 5.66659 10.0834C6.05339 10.4702 6.57799 10.6875 7.125 10.6875ZM7.125 7.96875C7.48828 7.96875 7.78125 8.26172 7.78125 8.625C7.78125 8.98828 7.48828 9.28125 7.125 9.28125C6.76172 9.28125 6.46875 8.98828 6.46875 8.625C6.46875 8.26172 6.76172 7.96875 7.125 7.96875Z" fill="#1890FF"/>
    </g>
  </symbol>
  <symbol id="friends" viewBox="0 0 24 24">
    <g>
      <path d="M15.8976 15.0563C16.4648 14.7516 17.114 14.5781 17.8054 14.5781H17.8077C17.8781 14.5781 17.9109 14.4938 17.8593 14.4469C17.1403 13.8016 16.3189 13.2804 15.4288 12.9047C15.4195 12.9 15.4101 12.8977 15.4007 12.893C16.8562 11.8359 17.8031 10.118 17.8031 8.17969C17.8031 4.96875 15.2062 2.36719 12.0023 2.36719C8.79837 2.36719 6.20384 4.96875 6.20384 8.17969C6.20384 10.118 7.15072 11.8359 8.60853 12.893C8.59915 12.8977 8.58978 12.9 8.58041 12.9047C7.53275 13.3477 6.59291 13.9828 5.78431 14.7938C4.98039 15.5962 4.34036 16.5475 3.89994 17.5945C3.46661 18.6198 3.23274 19.7184 3.21087 20.8312C3.21025 20.8563 3.21464 20.8812 3.22378 20.9044C3.23292 20.9277 3.24663 20.949 3.26411 20.9669C3.28158 20.9848 3.30246 20.999 3.32552 21.0087C3.34858 21.0184 3.37335 21.0234 3.39837 21.0234H4.80228C4.90306 21.0234 4.98744 20.9414 4.98978 20.8406C5.03666 19.0312 5.76087 17.3367 7.04291 16.0523C8.36712 14.7234 10.1296 13.9922 12.0046 13.9922C13.3335 13.9922 14.6085 14.3602 15.7077 15.0492C15.736 15.067 15.7684 15.077 15.8017 15.0782C15.8351 15.0794 15.8681 15.0719 15.8976 15.0563ZM12.0046 12.2109C10.9312 12.2109 9.92103 11.7914 9.15931 11.0297C8.78453 10.6559 8.48742 10.2116 8.28509 9.72248C8.08276 9.23335 7.97921 8.70901 7.98041 8.17969C7.98041 7.10391 8.39994 6.09141 9.15931 5.32969C9.91869 4.56797 10.9288 4.14844 12.0046 4.14844C13.0804 4.14844 14.0882 4.56797 14.8499 5.32969C15.2247 5.70349 15.5218 6.14776 15.7242 6.63689C15.9265 7.12603 16.03 7.65036 16.0288 8.17969C16.0288 9.25547 15.6093 10.268 14.8499 11.0297C14.0882 11.7914 13.0781 12.2109 12.0046 12.2109ZM20.6249 17.7891H18.6562V15.8203C18.6562 15.7172 18.5718 15.6328 18.4687 15.6328H17.1562C17.0531 15.6328 16.9687 15.7172 16.9687 15.8203V17.7891H14.9999C14.8968 17.7891 14.8124 17.8734 14.8124 17.9766V19.2891C14.8124 19.3922 14.8968 19.4766 14.9999 19.4766H16.9687V21.4453C16.9687 21.5484 17.0531 21.6328 17.1562 21.6328H18.4687C18.5718 21.6328 18.6562 21.5484 18.6562 21.4453V19.4766H20.6249C20.7281 19.4766 20.8124 19.3922 20.8124 19.2891V17.9766C20.8124 17.8734 20.7281 17.7891 20.6249 17.7891Z" fill="#1890FF"/>
    </g>
  </symbol>
  <symbol id="smile" viewBox="0 0 24 24">
    <g>
      <path d="M12 1.5C6.20156 1.5 1.5 6.20156 1.5 12C1.5 17.7984 6.20156 22.5 12 22.5C17.7984 22.5 22.5 17.7984 22.5 12C22.5 6.20156 17.7984 1.5 12 1.5ZM12 20.7188C7.18594 20.7188 3.28125 16.8141 3.28125 12C3.28125 7.18594 7.18594 3.28125 12 3.28125C16.8141 3.28125 20.7188 7.18594 20.7188 12C20.7188 16.8141 16.8141 20.7188 12 20.7188Z" fill="#1890FF"/>
      <path d="M12 3.28125C7.18594 3.28125 3.28125 7.18594 3.28125 12C3.28125 16.8141 7.18594 20.7188 12 20.7188C16.8141 20.7188 20.7188 16.8141 20.7188 12C20.7188 7.18594 16.8141 3.28125 12 3.28125ZM6.75 9.86719C6.75601 9.5728 6.87718 9.29249 7.0875 9.08641C7.29782 8.88034 7.58055 8.76492 7.875 8.76492C8.16945 8.76492 8.45218 8.88034 8.6625 9.08641C8.87282 9.29249 8.99399 9.5728 9 9.86719C8.99399 10.1616 8.87282 10.4419 8.6625 10.648C8.45218 10.854 8.16945 10.9695 7.875 10.9695C7.58055 10.9695 7.29782 10.854 7.0875 10.648C6.87718 10.4419 6.75601 10.1616 6.75 9.86719ZM12 16.2422C9.99609 16.2422 8.35313 14.6648 8.25 12.6891C8.24873 12.6637 8.25264 12.6383 8.26149 12.6144C8.27034 12.5906 8.28395 12.5688 8.30149 12.5504C8.31903 12.532 8.34013 12.5173 8.36351 12.5073C8.3869 12.4973 8.41207 12.4922 8.4375 12.4922H9.56484C9.66328 12.4922 9.74766 12.5672 9.75469 12.6656C9.84375 13.8258 10.8164 14.7422 12 14.7422C13.1836 14.7422 14.1586 13.8258 14.2453 12.6656C14.2523 12.5672 14.3367 12.4922 14.4352 12.4922H15.5625C15.5879 12.4922 15.6131 12.4973 15.6365 12.5073C15.6599 12.5173 15.681 12.532 15.6985 12.5504C15.716 12.5688 15.7297 12.5906 15.7385 12.6144C15.7474 12.6383 15.7513 12.6637 15.75 12.6891C15.6469 14.6648 14.0039 16.2422 12 16.2422ZM16.125 10.9922C15.8306 10.9862 15.5503 10.865 15.3442 10.6547C15.1382 10.4444 15.0227 10.1616 15.0227 9.86719C15.0227 9.57273 15.1382 9.29001 15.3442 9.07969C15.5503 8.86936 15.8306 8.7482 16.125 8.74219C16.4194 8.7482 16.6997 8.86936 16.9058 9.07969C17.1118 9.29001 17.2273 9.57273 17.2273 9.86719C17.2273 10.1616 17.1118 10.4444 16.9058 10.6547C16.6997 10.865 16.4194 10.9862 16.125 10.9922Z" fill="#E6F7FF"/>
      <path d="M6.75 9.86719C6.75 10.1656 6.86853 10.4517 7.0795 10.6627C7.29048 10.8737 7.57663 10.9922 7.875 10.9922C8.17337 10.9922 8.45952 10.8737 8.6705 10.6627C8.88147 10.4517 9 10.1656 9 9.86719C9 9.56882 8.88147 9.28267 8.6705 9.07169C8.45952 8.86071 8.17337 8.74219 7.875 8.74219C7.57663 8.74219 7.29048 8.86071 7.0795 9.07169C6.86853 9.28267 6.75 9.56882 6.75 9.86719ZM15.5625 12.4922H14.4352C14.3367 12.4922 14.2523 12.5672 14.2453 12.6656C14.1586 13.8258 13.1836 14.7422 12 14.7422C10.8164 14.7422 9.84375 13.8258 9.75469 12.6656C9.74766 12.5672 9.66328 12.4922 9.56484 12.4922H8.4375C8.41207 12.4922 8.3869 12.4973 8.36351 12.5073C8.34013 12.5173 8.31903 12.532 8.30149 12.5504C8.28395 12.5688 8.27034 12.5906 8.26149 12.6144C8.25264 12.6383 8.24873 12.6637 8.25 12.6891C8.35312 14.6648 9.99609 16.2422 12 16.2422C14.0039 16.2422 15.6469 14.6648 15.75 12.6891C15.7513 12.6637 15.7474 12.6383 15.7385 12.6144C15.7297 12.5906 15.716 12.5688 15.6985 12.5504C15.681 12.532 15.6599 12.5173 15.6365 12.5073C15.6131 12.4973 15.5879 12.4922 15.5625 12.4922ZM15 9.86719C15 10.1656 15.1185 10.4517 15.3295 10.6627C15.5405 10.8737 15.8266 10.9922 16.125 10.9922C16.4234 10.9922 16.7095 10.8737 16.9205 10.6627C17.1315 10.4517 17.25 10.1656 17.25 9.86719C17.25 9.56882 17.1315 9.28267 16.9205 9.07169C16.7095 8.86071 16.4234 8.74219 16.125 8.74219C15.8266 8.74219 15.5405 8.86071 15.3295 9.07169C15.1185 9.28267 15 9.56882 15 9.86719Z" fill="#1890FF"/>
    </g>
  </symbol>
  <symbol id="threedots" viewBox="0 0 24 24">
    <g>
      <path d="M4.125 11.9766C4.125 12.1489 4.15895 12.3196 4.22491 12.4788C4.29087 12.6381 4.38755 12.7828 4.50942 12.9046C4.6313 13.0265 4.77599 13.1232 4.93523 13.1892C5.09447 13.2551 5.26514 13.2891 5.4375 13.2891C5.60986 13.2891 5.78053 13.2551 5.93977 13.1892C6.09901 13.1232 6.2437 13.0265 6.36558 12.9046C6.48745 12.7828 6.58413 12.6381 6.65009 12.4788C6.71605 12.3196 6.75 12.1489 6.75 11.9766C6.75 11.8042 6.71605 11.6335 6.65009 11.4743C6.58413 11.3151 6.48745 11.1704 6.36558 11.0485C6.2437 10.9266 6.09901 10.8299 5.93977 10.764C5.78053 10.698 5.60986 10.6641 5.4375 10.6641C5.26514 10.6641 5.09447 10.698 4.93523 10.764C4.77599 10.8299 4.6313 10.9266 4.50942 11.0485C4.38755 11.1704 4.29087 11.3151 4.22491 11.4743C4.15895 11.6335 4.125 11.8042 4.125 11.9766ZM10.6875 11.9766C10.6875 12.3247 10.8258 12.6585 11.0719 12.9046C11.3181 13.1508 11.6519 13.2891 12 13.2891C12.3481 13.2891 12.6819 13.1508 12.9281 12.9046C13.1742 12.6585 13.3125 12.3247 13.3125 11.9766C13.3125 11.6285 13.1742 11.2946 12.9281 11.0485C12.6819 10.8023 12.3481 10.6641 12 10.6641C11.6519 10.6641 11.3181 10.8023 11.0719 11.0485C10.8258 11.2946 10.6875 11.6285 10.6875 11.9766ZM17.25 11.9766C17.25 12.3247 17.3883 12.6585 17.6344 12.9046C17.8806 13.1508 18.2144 13.2891 18.5625 13.2891C18.9106 13.2891 19.2444 13.1508 19.4906 12.9046C19.7367 12.6585 19.875 12.3247 19.875 11.9766C19.875 11.6285 19.7367 11.2946 19.4906 11.0485C19.2444 10.8023 18.9106 10.6641 18.5625 10.6641C18.2144 10.6641 17.8806 10.8023 17.6344 11.0485C17.3883 11.2946 17.25 11.6285 17.25 11.9766Z" fill="#595959"/>
    </g>
  </symbol>
</svg>